:SAMPLES-PER-SECOND 30
:FULLY-SPECIFIED
:DEGREES
323
root  2.70195 37.7637 8.11687 -77.9187 -76.5816 67.7081
RightUpLeg  -8.81805 25.6835 -17.2362
RightLeg  42.5563 -1.35422 -1.62424
RightFoot  -17.4691 0.499819 11.5584
RightToes  -1.28057e-009 0 -3.6325e-017
Spine  13.4165 -3.25464 1.18703
Spine1  1.90963 -0.719865 -16.5807
HEad  -16.0092 3.39479 -9.12938
LeftShoulder1  2.2735 -5.54873 -18.5621
LeftArm  -18.4376 24.4684 -47.521
LeftForeArm  -42.9979 -35.2264 -9.86978
LeftHand  0.452028 7.25706 27.7214
RightShoulder  1.55967 2.65711 18.8754
RightArm  16.3885 -19.8884 61.799
RightForeArm  13.1871 48.2871 11.604
RightHand  -0.579602 -1.67468 -18.1348
LeftUpLeg  2.14832 1.16864 1.63169
LeftLeg  28.8585 -10.9855 -6.14955
LeftFoot  -13.3057 -0.276777 -20.3222
LeftToes  -7.27922e-012 9.28972e-011 -9.04533e-012
324
root  3.01993 37.5659 8.67283 -75.9895 -75.0728 65.5847
RightUpLeg  -11.0939 25.07 -19.6475
RightLeg  46.4948 -2.17822 -2.77598
RightFoot  -15.3189 0.337245 12.6509
RightToes  -1.28057e-009 0 -3.6325e-017
Spine  13.7269 -3.63406 -1.63791
Spine1  1.73948 -1.89146 -15.7171
HEad  -15.9313 3.90043 -8.0838
LeftShoulder1  2.18262 -5.29816 -18.2214
LeftArm  -27.8544 25.683 -48.4881
LeftForeArm  -47.493 -41.2401 -12.0224
LeftHand  1.20688 9.02778 36.8046
RightShoulder  1.67914 2.75502 20.5102
RightArm  6.75166 -22.748 56.6979
RightForeArm  7.753 51.4896 13.5847
RightHand  -0.46955 -3.25764 -24.9634
LeftUpLeg  2.75036 2.82203 -1.39317
LeftLeg  27.2984 -6.83544 -3.44663
LeftFoot  -15.6628 -0.48124 -14.9647
LeftToes  -7.27922e-012 9.28972e-011 -9.04533e-012
325
root  3.43149 37.3441 9.17771 -72.599 -73.772 61.2078
RightUpLeg  -12.6536 24.2435 -20.8472
RightLeg  50.8248 -3.23935 -4.61016
RightFoot  -12.3276 0.0237882 12.1312
RightToes  -1.28057e-009 0 -3.6325e-017
Spine  14.4782 -3.86907 -4.26831
Spine1  2.81757 -2.85131 -13.9372
HEad  -16.4534 3.68831 -6.99369
LeftShoulder1  2.13069 -5.45232 -17.1366
LeftArm  -33.7066 25.1319 -49.7819
LeftForeArm  -47.7146 -49.4848 -15.6744
LeftHand  2.01071 10.3004 44.3855
RightShoulder  1.74881 2.81595 21.4158
RightArm  -3.67481 -26.328 52.1163
RightForeArm  8.31555 59.271 18.7034
RightHand  -0.447592 -3.81136 -32.0142
LeftUpLeg  2.67804 0.27049 -4.52162
LeftLeg  27.8292 -1.74074 -0.603853
LeftFoot  -17.0595 -0.543601 -12.8173
LeftToes  -7.27922e-012 9.28972e-011 -9.04533e-012
326
root  3.86074 37.1038 9.55034 -71.7292 -73.4789 58.5471
RightUpLeg  -13.564 23.4347 -20.3984
RightLeg  54.9954 -4.38706 -7.11408
RightFoot  -9.19703 -0.252181 10.2068
RightToes  -1.28057e-009 0 -3.6325e-017
Spine  15.615 -3.54744 -6.22005
Spine1  5.01032 -3.15909 -11.8078
HEad  -17.5511 3.3911 -5.81268
LeftShoulder1  2.08805 -5.78709 -15.6994
LeftArm  -36.164 23.3742 -50.4032
LeftForeArm  -40.8362 -59.8737 -22.8486
LeftHand  2.3994 10.8703 47.117
RightShoulder  1.74189 2.82151 21.2713
RightArm  -12.49 -29.4554 48.9325
RightForeArm  19.207 69.349 30.274
RightHand  -0.69525 -3.23907 -36.7892
LeftUpLeg  2.73439 -2.42947 -6.08586
LeftLeg  30.3801 0.484525 0.673353
LeftFoot  -18.5224 -0.712795 -13.0617
LeftToes  -7.27922e-012 9.28972e-011 -9.04533e-012
327
root  4.27219 36.8758 9.78661 -74.8251 -74.3937 59.7178
RightUpLeg  -14.7488 21.4652 -19.2148
RightLeg  58.5816 -5.52402 -10.1142
RightFoot  -5.66682 -0.43712 8.05303
RightToes  -1.28057e-009 0 -3.6325e-017
Spine  17.028 -2.74311 -7.42192
Spine1  6.96824 -2.89732 -10.126
HEad  -18.7021 3.64815 -4.51686
LeftShoulder1  1.9725 -5.86248 -14.1443
LeftArm  -35.6968 21.2604 -49.9197
LeftForeArm  -19.3473 -70.9086 -39.5412
LeftHand  2.1125 10.302 46.3207
RightShoulder  1.71306 2.85259 20.6406
RightArm  -18.1298 -30.834 46.5664
RightForeArm  49.4658 77.6488 57.9833
RightHand  -1.00673 -2.51801 -39.5564
LeftUpLeg  3.0096 -1.75299 -5.58362
LeftLeg  33.1733 -0.192751 0.255649
LeftFoot  -20.0097 -0.887251 -13.2464
LeftToes  -7.27922e-012 9.28972e-011 -9.04533e-012
328
root  4.67786 36.7175 9.9412 -79.3762 -75.7212 62.7265
RightUpLeg  -16.3821 16.9058 -18.5895
RightLeg  60.9863 -5.86697 -11.7797
RightFoot  -1.6207 -0.587566 6.7408
RightToes  -1.28057e-009 0 -3.6325e-017
Spine  18.7036 -1.94823 -8.27909
Spine1  7.60431 -2.67754 -8.82063
HEad  -19.1145 4.38004 -3.45714
LeftShoulder1  1.80414 -5.6484 -12.6651
LeftArm  -32.8598 19.1516 -48.4629
LeftForeArm  32.8213 -77.8467 -81.1845
LeftHand  1.44909 8.88831 44.7177
RightShoulder  1.6782 2.89046 19.8798
RightArm  -20.5564 -30.3163 44.633
RightForeArm  103.457 79.294 107.136
RightHand  -1.30287 -1.92696 -42.1184
LeftUpLeg  3.3111 0.19892 -4.33299
LeftLeg  35.0066 -0.534395 0.00578822
LeftFoot  -20.8564 -0.939685 -12.7432
LeftToes  -7.27922e-012 9.28972e-011 -9.04533e-012
329
root  5.0665 36.6539 10.0314 -82.0034 -76.9746 64.0433
RightUpLeg  -17.598 10.3027 -18.7907
RightLeg  61.9622 -4.53056 -9.67085
RightFoot  1.81024 -0.783773 6.87379
RightToes  -1.28057e-009 0 -3.6325e-017
Spine  20.6861 -1.37629 -8.94737
Spine1  7.03369 -2.78523 -7.2956
HEad  -18.3703 4.87077 -2.90118
LeftShoulder1  1.70457 -5.6327 -11.5015
LeftArm  -28.4842 17.0983 -46.5103
LeftForeArm  95.5568 -75.183 -129.609
LeftHand  0.742313 7.27324 42.3688
RightShoulder  1.61603 2.8421 19.0377
RightArm  -20.5016 -28.9285 43.3869
RightForeArm  140.777 75.2044 138.426
RightHand  -1.64535 -1.26909 -44.4824
LeftUpLeg  3.71517 0.638018 -3.31251
LeftLeg  35.9765 0.194314 0.561453
LeftFoot  -21.0955 -0.946844 -12.5324
LeftToes  -7.27922e-012 9.28972e-011 -9.04533e-012
330
root  5.37957 36.6711 10.0251 -83.7642 -78.4701 64.5898
RightUpLeg  -18.0145 4.36935 -19.4097
RightLeg  62.0181 -2.04367 -4.71368
RightFoot  4.06321 -1.10549 8.35923
RightToes  -1.28057e-009 0 -3.6325e-017
Spine  22.5673 -0.81512 -9.01424
Spine1  6.10986 -2.72849 -5.819
HEad  -16.7902 4.63284 -2.57374
LeftShoulder1  1.72301 -6.13609 -10.6325
LeftArm  -23.1975 15.2599 -44.8905
LeftForeArm  131.433 -68.6266 -150.432
LeftHand  0.179055 5.8772 38.4372
RightShoulder  1.57736 2.82654 18.4456
RightArm  -18.5995 -27.6231 42.7785
RightForeArm  159.334 70.587 151.167
RightHand  -1.8966 -0.682866 -44.8267
LeftUpLeg  4.38682 -0.0538982 -2.11078
LeftLeg  36.4625 0.825615 1.0659
LeftFoot  -21.1313 -0.983444 -12.913
LeftToes  -7.27922e-012 9.28972e-011 -9.04533e-012
331
root  5.56157 36.7602 9.89816 -88.7293 -80.3525 68.7881
RightUpLeg  -18.0985 1.37144 -20.2402
RightLeg  61.458 -0.458429 -1.43544
RightFoot  5.43544 -1.46246 10.1552
RightToes  -1.28057e-009 0 -3.6325e-017
Spine  23.6411 -0.144122 -8.27947
Spine1  5.36586 -2.08816 -5.27919
HEad  -14.9986 3.9501 -2.11647
LeftShoulder1  1.77163 -6.84261 -9.79479
LeftArm  -16.8002 13.8939 -44.5912
LeftForeArm  154.05 -63.0612 -159.088
LeftHand  -0.075668 5.11772 34.2116
RightShoulder  1.63809 3.09291 18.3476
RightArm  -15.2625 -26.6703 42.7031
RightForeArm  169.324 67.6827 156.224
RightHand  -1.83056 -0.547981 -42.1975
LeftUpLeg  5.20876 -0.169518 -0.22904
LeftLeg  36.3168 1.10366 1.2804
LeftFoot  -21.0074 -1.00389 -13.3083
LeftToes  -7.27922e-012 9.28972e-011 -9.04533e-012
332
root  5.60804 36.9317 9.66255 -96.7906 -82.2087 76.8816
RightUpLeg  -18.0032 0.843854 -21.4515
RightLeg  59.8697 -1.22548 -2.73908
RightFoot  6.09786 -1.56835 10.4762
RightToes  -1.28057e-009 0 -3.6325e-017
Spine  23.6889 0.41196 -7.11558
Spine1  4.64511 -1.22386 -5.57964
HEad  -13.1897 3.4209 -1.68078
LeftShoulder1  1.77759 -7.27686 -9.0847
LeftArm  -9.0252 13.3064 -45.8312
LeftForeArm  169.394 -60.2096 -162.668
LeftHand  -0.215821 4.58531 31.2722
RightShoulder  1.76063 3.58878 18.3377
RightArm  -10.9939 -26.1604 43.5712
RightForeArm  174.881 67.4816 157.055
RightHand  -1.55145 -0.734101 -37.577
LeftUpLeg  5.84217 0.00960244 1.90639
LeftLeg  35.3283 1.71571 1.70899
LeftFoot  -20.5362 -0.969476 -13.5302
LeftToes  -7.27922e-012 9.28972e-011 -9.04533e-012
333
root  5.55214 37.1646 9.3276 -101.857 -83.8604 82.7271
RightUpLeg  -17.2723 0.9491 -23.1014
RightLeg  56.8822 -3.80923 -6.66382
RightFoot  6.22063 -1.31199 8.746
RightToes  -1.28057e-009 0 -3.6325e-017
Spine  23.0415 0.647444 -5.94911
Spine1  3.59226 -0.678414 -5.74209
HEad  -11.0697 3.16623 -1.56487
LeftShoulder1  1.79957 -7.41966 -9.07038
LeftArm  -0.738109 13.8223 -47.549
LeftForeArm  178.648 -60.6269 -163.194
LeftHand  -0.47411 3.50442 28.9852
RightShoulder  1.84053 3.97839 18.0883
RightArm  -6.5811 -26.2825 45.4015
RightForeArm  176.908 70.0792 154.132
RightHand  -1.35648 -0.681655 -32.8381
LeftUpLeg  5.97373 -0.83685 3.84103
LeftLeg  33.8212 2.65381 2.30941
LeftFoot  -19.8094 -0.91156 -13.8558
LeftToes  -7.27922e-012 9.28972e-011 -9.04533e-012
334
root  5.42627 37.4179 8.87983 -100.178 -85.6465 82.3793
RightUpLeg  -15.6487 1.07072 -24.6149
RightLeg  52.1105 -6.72247 -9.52573
RightFoot  6.8789 -0.976301 6.41298
RightToes  -1.28057e-009 0 -3.6325e-017
Spine  21.9825 0.668603 -4.75489
Spine1  2.14996 -0.408526 -5.41049
HEad  -8.47323 2.79871 -1.61033
LeftShoulder1  1.91554 -7.54961 -10.0227
LeftArm  6.52176 15.4797 -48.6613
LeftForeArm  -177.065 -63.7118 -161.36
LeftHand  -0.774341 1.98866 26.2174
RightShoulder  1.8697 4.10596 18.0561
RightArm  -2.76815 -26.9596 47.1881
RightForeArm  172.495 74.5936 145.625
RightHand  -1.31132 -0.312045 -29.5615
LeftUpLeg  5.53609 -2.58646 5.95129
LeftLeg  32.1224 3.39347 2.684
LeftFoot  -18.9525 -0.841938 -14.295
LeftToes  -7.27922e-012 9.28972e-011 -9.04533e-012
335
root  5.23911 37.6625 8.30837 -95.2596 -87.5536 79.1743
RightUpLeg  -13.2597 1.82384 -25.43
RightLeg  45.057 -8.69416 -9.53161
RightFoot  10.4064 -0.981276 5.46681
RightToes  -1.28057e-009 0 -3.6325e-017
Spine  20.5446 0.732232 -3.5135
Spine1  0.57481 -0.0766681 -5.04109
HEad  -5.59823 2.09223 -1.47023
LeftShoulder1  2.08423 -7.71317 -11.4161
LeftArm  11.8172 17.9603 -49.2801
LeftForeArm  -177.534 -68.7226 -156.487
LeftHand  -0.983998 0.643451 23.9207
RightShoulder  1.91069 4.12375 18.577
RightArm  0.118256 -27.7679 48.2401
RightForeArm  152.66 79.4686 123.619
RightHand  -1.32332 -0.0347627 -28.3272
LeftUpLeg  4.83677 -4.13177 8.56748
LeftLeg  30.0947 3.98142 2.86784
LeftFoot  -17.8048 -0.729779 -14.7379
LeftToes  -7.27922e-012 9.28972e-011 -9.04533e-012
336
root  4.97982 37.8799 7.61915 -71.366 -89.0402 57.0722
RightUpLeg  -9.9312 3.11852 -25.7245
RightLeg  35.8751 -8.62587 -6.93479
RightFoot  16.9826 -1.89854 7.86725
RightToes  -1.28057e-009 0 -3.6325e-017
Spine  18.7931 0.908326 -2.78033
Spine1  -0.794947 0.26882 -4.66601
HEad  -2.63302 1.27323 -1.11497
LeftShoulder1  2.18635 -7.70266 -12.4452
LeftArm  15.105 20.7578 -49.9348
LeftForeArm  172.408 -75.0115 -144.523
LeftHand  -1.14513 -0.271446 23.386
RightShoulder  1.94779 4.13941 19.0476
RightArm  1.98786 -28.3675 49.2716
RightForeArm  103.586 80.8325 73.8928
RightHand  -1.39271 0.186547 -28.6153
LeftUpLeg  4.40889 -5.21751 11.2254
LeftLeg  27.4819 4.65736 2.97012
LeftFoot  -16.2543 -0.56728 -15.4186
LeftToes  -7.27922e-012 9.28972e-011 -9.04533e-012
337
root  4.64739 38.0625 6.83393 -2.00337 -89.2038 -10.7206
RightUpLeg  -5.47485 3.38148 -25.8036
RightLeg  26.0949 -6.16966 -3.49985
RightFoot  22.1087 -4.06062 14.005
RightToes  -1.28057e-009 0 -3.6325e-017
Spine  16.9375 0.983517 -2.89528
Spine1  -1.74081 0.335332 -3.79564
HEad  0.269568 0.547957 -0.632542
LeftShoulder1  2.16646 -7.42624 -12.7867
LeftArm  17.0635 23.3301 -50.4429
LeftForeArm  140.447 -80.3486 -113.309
LeftHand  -1.30984 -0.964777 23.8521
RightShoulder  1.91142 4.02129 18.9559
RightArm  2.87599 -28.7589 51.2058
RightForeArm  65.0564 75.1496 35.5804
RightHand  -1.56042 0.667631 -29.4861
LeftUpLeg  4.48939 -5.607 13.6782
LeftLeg  24.2201 4.38339 2.65469
LeftFoot  -14.5182 -0.373254 -16.4929
LeftToes  -7.27922e-012 9.28972e-011 -9.04533e-012
